<mxfile host="Electron" modified="2024-02-08T14:35:52.615Z" agent="Mozilla/5.0 (Windows NT 10.0; Win64; x64) AppleWebKit/537.36 (KHTML, like Gecko) draw.io/22.0.3 Chrome/114.0.5735.289 Electron/25.8.4 Safari/537.36" etag="zWe4s9tiOfDDTRqzSADp" version="22.0.3" type="device">
  <diagram name="Pagina-1" id="x_HgcXylL7boOuMKqr33">
    <mxGraphModel dx="2056" dy="591" grid="1" gridSize="10" guides="1" tooltips="1" connect="1" arrows="1" fold="1" page="1" pageScale="1" pageWidth="827" pageHeight="1169" math="0" shadow="0">
      <root>
        <mxCell id="0" />
        <mxCell id="1" parent="0" />
        <mxCell id="3opzVPZRNWy8DkOBu5dA-7" style="edgeStyle=orthogonalEdgeStyle;rounded=0;orthogonalLoop=1;jettySize=auto;html=1;" edge="1" parent="1" source="3opzVPZRNWy8DkOBu5dA-3" target="3opzVPZRNWy8DkOBu5dA-4">
          <mxGeometry relative="1" as="geometry" />
        </mxCell>
        <mxCell id="3opzVPZRNWy8DkOBu5dA-3" value="START" style="rounded=1;whiteSpace=wrap;html=1;" vertex="1" parent="1">
          <mxGeometry x="110" y="60" width="120" height="60" as="geometry" />
        </mxCell>
        <mxCell id="3opzVPZRNWy8DkOBu5dA-8" style="edgeStyle=orthogonalEdgeStyle;rounded=0;orthogonalLoop=1;jettySize=auto;html=1;entryX=0.5;entryY=0;entryDx=0;entryDy=0;" edge="1" parent="1" source="3opzVPZRNWy8DkOBu5dA-4" target="3opzVPZRNWy8DkOBu5dA-6">
          <mxGeometry relative="1" as="geometry" />
        </mxCell>
        <mxCell id="3opzVPZRNWy8DkOBu5dA-4" value="welkom de klant" style="rounded=0;whiteSpace=wrap;html=1;" vertex="1" parent="1">
          <mxGeometry x="110" y="150" width="120" height="60" as="geometry" />
        </mxCell>
        <mxCell id="3opzVPZRNWy8DkOBu5dA-13" style="edgeStyle=orthogonalEdgeStyle;rounded=0;orthogonalLoop=1;jettySize=auto;html=1;" edge="1" parent="1" source="3opzVPZRNWy8DkOBu5dA-6" target="3opzVPZRNWy8DkOBu5dA-10">
          <mxGeometry relative="1" as="geometry" />
        </mxCell>
        <mxCell id="3opzVPZRNWy8DkOBu5dA-15" value="tussen 1 en 3" style="edgeLabel;html=1;align=center;verticalAlign=middle;resizable=0;points=[];" vertex="1" connectable="0" parent="3opzVPZRNWy8DkOBu5dA-13">
          <mxGeometry x="0.1653" y="3" relative="1" as="geometry">
            <mxPoint as="offset" />
          </mxGeometry>
        </mxCell>
        <mxCell id="3opzVPZRNWy8DkOBu5dA-18" style="edgeStyle=orthogonalEdgeStyle;rounded=0;orthogonalLoop=1;jettySize=auto;html=1;entryX=0;entryY=0.5;entryDx=0;entryDy=0;" edge="1" parent="1" source="3opzVPZRNWy8DkOBu5dA-6" target="3opzVPZRNWy8DkOBu5dA-17">
          <mxGeometry relative="1" as="geometry" />
        </mxCell>
        <mxCell id="3opzVPZRNWy8DkOBu5dA-20" value="Meer dan 8" style="edgeLabel;html=1;align=center;verticalAlign=middle;resizable=0;points=[];" vertex="1" connectable="0" parent="3opzVPZRNWy8DkOBu5dA-18">
          <mxGeometry x="0.2889" y="-2" relative="1" as="geometry">
            <mxPoint x="-8" y="-2" as="offset" />
          </mxGeometry>
        </mxCell>
        <mxCell id="3opzVPZRNWy8DkOBu5dA-23" style="edgeStyle=orthogonalEdgeStyle;rounded=0;orthogonalLoop=1;jettySize=auto;html=1;" edge="1" parent="1" source="3opzVPZRNWy8DkOBu5dA-6" target="3opzVPZRNWy8DkOBu5dA-22">
          <mxGeometry relative="1" as="geometry" />
        </mxCell>
        <mxCell id="3opzVPZRNWy8DkOBu5dA-25" value="Geen integer" style="edgeLabel;html=1;align=center;verticalAlign=middle;resizable=0;points=[];" vertex="1" connectable="0" parent="3opzVPZRNWy8DkOBu5dA-23">
          <mxGeometry x="0.04" y="-2" relative="1" as="geometry">
            <mxPoint as="offset" />
          </mxGeometry>
        </mxCell>
        <mxCell id="3opzVPZRNWy8DkOBu5dA-6" value="Vraag aantal bolletjes?" style="shape=parallelogram;perimeter=parallelogramPerimeter;whiteSpace=wrap;html=1;fixedSize=1;" vertex="1" parent="1">
          <mxGeometry x="110" y="340" width="120" height="60" as="geometry" />
        </mxCell>
        <mxCell id="3opzVPZRNWy8DkOBu5dA-28" style="edgeStyle=orthogonalEdgeStyle;rounded=0;orthogonalLoop=1;jettySize=auto;html=1;entryX=0;entryY=0.5;entryDx=0;entryDy=0;" edge="1" parent="1" source="3opzVPZRNWy8DkOBu5dA-10" target="3opzVPZRNWy8DkOBu5dA-27">
          <mxGeometry relative="1" as="geometry" />
        </mxCell>
        <mxCell id="3opzVPZRNWy8DkOBu5dA-29" value="Geen hoorntje of bakje" style="edgeLabel;html=1;align=center;verticalAlign=middle;resizable=0;points=[];" vertex="1" connectable="0" parent="3opzVPZRNWy8DkOBu5dA-28">
          <mxGeometry x="-0.1095" y="1" relative="1" as="geometry">
            <mxPoint as="offset" />
          </mxGeometry>
        </mxCell>
        <mxCell id="3opzVPZRNWy8DkOBu5dA-32" style="edgeStyle=orthogonalEdgeStyle;rounded=0;orthogonalLoop=1;jettySize=auto;html=1;entryX=0.5;entryY=0;entryDx=0;entryDy=0;" edge="1" parent="1" source="3opzVPZRNWy8DkOBu5dA-10" target="3opzVPZRNWy8DkOBu5dA-31">
          <mxGeometry relative="1" as="geometry" />
        </mxCell>
        <mxCell id="3opzVPZRNWy8DkOBu5dA-33" value="als het een hoortje of bakje is" style="edgeLabel;html=1;align=center;verticalAlign=middle;resizable=0;points=[];" vertex="1" connectable="0" parent="3opzVPZRNWy8DkOBu5dA-32">
          <mxGeometry x="-0.112" y="1" relative="1" as="geometry">
            <mxPoint as="offset" />
          </mxGeometry>
        </mxCell>
        <mxCell id="3opzVPZRNWy8DkOBu5dA-10" value="Vraag voor hoorntje of bakje?" style="shape=parallelogram;perimeter=parallelogramPerimeter;whiteSpace=wrap;html=1;fixedSize=1;" vertex="1" parent="1">
          <mxGeometry x="220" y="440" width="120" height="60" as="geometry" />
        </mxCell>
        <mxCell id="3opzVPZRNWy8DkOBu5dA-50" style="edgeStyle=orthogonalEdgeStyle;rounded=0;orthogonalLoop=1;jettySize=auto;html=1;entryX=0;entryY=0.5;entryDx=0;entryDy=0;" edge="1" parent="1" source="3opzVPZRNWy8DkOBu5dA-11" target="3opzVPZRNWy8DkOBu5dA-31">
          <mxGeometry relative="1" as="geometry">
            <Array as="points">
              <mxPoint x="70" y="580" />
            </Array>
          </mxGeometry>
        </mxCell>
        <mxCell id="3opzVPZRNWy8DkOBu5dA-11" value="geef de klant een bakje" style="rounded=0;whiteSpace=wrap;html=1;" vertex="1" parent="1">
          <mxGeometry x="10" y="440" width="120" height="60" as="geometry" />
        </mxCell>
        <mxCell id="3opzVPZRNWy8DkOBu5dA-12" style="edgeStyle=orthogonalEdgeStyle;rounded=0;orthogonalLoop=1;jettySize=auto;html=1;entryX=0.415;entryY=0.013;entryDx=0;entryDy=0;entryPerimeter=0;" edge="1" parent="1" source="3opzVPZRNWy8DkOBu5dA-6" target="3opzVPZRNWy8DkOBu5dA-11">
          <mxGeometry relative="1" as="geometry" />
        </mxCell>
        <mxCell id="3opzVPZRNWy8DkOBu5dA-14" value="tussen 4 en 8&amp;nbsp;" style="edgeLabel;html=1;align=center;verticalAlign=middle;resizable=0;points=[];" vertex="1" connectable="0" parent="3opzVPZRNWy8DkOBu5dA-12">
          <mxGeometry x="0.0677" y="2" relative="1" as="geometry">
            <mxPoint as="offset" />
          </mxGeometry>
        </mxCell>
        <mxCell id="3opzVPZRNWy8DkOBu5dA-19" style="edgeStyle=orthogonalEdgeStyle;rounded=0;orthogonalLoop=1;jettySize=auto;html=1;entryX=0.5;entryY=0;entryDx=0;entryDy=0;" edge="1" parent="1" source="3opzVPZRNWy8DkOBu5dA-17" target="3opzVPZRNWy8DkOBu5dA-6">
          <mxGeometry relative="1" as="geometry">
            <Array as="points">
              <mxPoint x="370" y="310" />
              <mxPoint x="170" y="310" />
            </Array>
          </mxGeometry>
        </mxCell>
        <mxCell id="3opzVPZRNWy8DkOBu5dA-17" value="bied excuses aan" style="rounded=0;whiteSpace=wrap;html=1;" vertex="1" parent="1">
          <mxGeometry x="310" y="340" width="120" height="60" as="geometry" />
        </mxCell>
        <mxCell id="3opzVPZRNWy8DkOBu5dA-26" style="edgeStyle=orthogonalEdgeStyle;rounded=0;orthogonalLoop=1;jettySize=auto;html=1;entryX=0.5;entryY=0;entryDx=0;entryDy=0;" edge="1" parent="1" source="3opzVPZRNWy8DkOBu5dA-22" target="3opzVPZRNWy8DkOBu5dA-6">
          <mxGeometry relative="1" as="geometry">
            <Array as="points">
              <mxPoint x="-40" y="310" />
              <mxPoint x="170" y="310" />
            </Array>
          </mxGeometry>
        </mxCell>
        <mxCell id="3opzVPZRNWy8DkOBu5dA-22" value="bied excuses aan" style="rounded=0;whiteSpace=wrap;html=1;" vertex="1" parent="1">
          <mxGeometry x="-100" y="340" width="120" height="60" as="geometry" />
        </mxCell>
        <mxCell id="3opzVPZRNWy8DkOBu5dA-30" style="edgeStyle=orthogonalEdgeStyle;rounded=0;orthogonalLoop=1;jettySize=auto;html=1;entryX=0.5;entryY=0;entryDx=0;entryDy=0;" edge="1" parent="1" source="3opzVPZRNWy8DkOBu5dA-27" target="3opzVPZRNWy8DkOBu5dA-10">
          <mxGeometry relative="1" as="geometry">
            <Array as="points">
              <mxPoint x="550" y="420" />
              <mxPoint x="280" y="420" />
            </Array>
          </mxGeometry>
        </mxCell>
        <mxCell id="3opzVPZRNWy8DkOBu5dA-27" value="bied excuses aan" style="rounded=0;whiteSpace=wrap;html=1;" vertex="1" parent="1">
          <mxGeometry x="490" y="440" width="120" height="60" as="geometry" />
        </mxCell>
        <mxCell id="3opzVPZRNWy8DkOBu5dA-35" style="edgeStyle=orthogonalEdgeStyle;rounded=0;orthogonalLoop=1;jettySize=auto;html=1;" edge="1" parent="1" source="3opzVPZRNWy8DkOBu5dA-31" target="3opzVPZRNWy8DkOBu5dA-39">
          <mxGeometry relative="1" as="geometry">
            <mxPoint x="280" y="660" as="targetPoint" />
          </mxGeometry>
        </mxCell>
        <mxCell id="3opzVPZRNWy8DkOBu5dA-31" value="geef het&amp;nbsp; aan klant" style="rounded=0;whiteSpace=wrap;html=1;" vertex="1" parent="1">
          <mxGeometry x="220" y="550" width="120" height="60" as="geometry" />
        </mxCell>
        <mxCell id="3opzVPZRNWy8DkOBu5dA-37" style="edgeStyle=orthogonalEdgeStyle;rounded=0;orthogonalLoop=1;jettySize=auto;html=1;entryX=0.5;entryY=0;entryDx=0;entryDy=0;exitX=1;exitY=0.5;exitDx=0;exitDy=0;" edge="1" parent="1" source="3opzVPZRNWy8DkOBu5dA-39" target="3opzVPZRNWy8DkOBu5dA-6">
          <mxGeometry relative="1" as="geometry">
            <mxPoint x="340" y="690" as="sourcePoint" />
            <Array as="points">
              <mxPoint x="660" y="690" />
              <mxPoint x="660" y="250" />
              <mxPoint x="170" y="250" />
            </Array>
          </mxGeometry>
        </mxCell>
        <mxCell id="3opzVPZRNWy8DkOBu5dA-38" value="Ja" style="edgeLabel;html=1;align=center;verticalAlign=middle;resizable=0;points=[];" vertex="1" connectable="0" parent="3opzVPZRNWy8DkOBu5dA-37">
          <mxGeometry x="-0.89" y="-2" relative="1" as="geometry">
            <mxPoint x="-23" y="-2" as="offset" />
          </mxGeometry>
        </mxCell>
        <mxCell id="3opzVPZRNWy8DkOBu5dA-41" style="edgeStyle=orthogonalEdgeStyle;rounded=0;orthogonalLoop=1;jettySize=auto;html=1;" edge="1" parent="1" source="3opzVPZRNWy8DkOBu5dA-39" target="3opzVPZRNWy8DkOBu5dA-40">
          <mxGeometry relative="1" as="geometry" />
        </mxCell>
        <mxCell id="3opzVPZRNWy8DkOBu5dA-42" value="Nee" style="edgeLabel;html=1;align=center;verticalAlign=middle;resizable=0;points=[];" vertex="1" connectable="0" parent="3opzVPZRNWy8DkOBu5dA-41">
          <mxGeometry x="-0.1333" y="4" relative="1" as="geometry">
            <mxPoint as="offset" />
          </mxGeometry>
        </mxCell>
        <mxCell id="3opzVPZRNWy8DkOBu5dA-46" style="edgeStyle=orthogonalEdgeStyle;rounded=0;orthogonalLoop=1;jettySize=auto;html=1;entryX=1;entryY=0.5;entryDx=0;entryDy=0;" edge="1" parent="1" source="3opzVPZRNWy8DkOBu5dA-39" target="3opzVPZRNWy8DkOBu5dA-45">
          <mxGeometry relative="1" as="geometry" />
        </mxCell>
        <mxCell id="3opzVPZRNWy8DkOBu5dA-48" value="Geen ja of nee" style="edgeLabel;html=1;align=center;verticalAlign=middle;resizable=0;points=[];" vertex="1" connectable="0" parent="3opzVPZRNWy8DkOBu5dA-46">
          <mxGeometry x="-0.0167" y="4" relative="1" as="geometry">
            <mxPoint as="offset" />
          </mxGeometry>
        </mxCell>
        <mxCell id="3opzVPZRNWy8DkOBu5dA-39" value="Vraag of klant meer wilt bestellen?" style="shape=parallelogram;perimeter=parallelogramPerimeter;whiteSpace=wrap;html=1;fixedSize=1;" vertex="1" parent="1">
          <mxGeometry x="220" y="660" width="120" height="60" as="geometry" />
        </mxCell>
        <mxCell id="3opzVPZRNWy8DkOBu5dA-44" style="edgeStyle=orthogonalEdgeStyle;rounded=0;orthogonalLoop=1;jettySize=auto;html=1;entryX=0.5;entryY=0;entryDx=0;entryDy=0;" edge="1" parent="1" source="3opzVPZRNWy8DkOBu5dA-40" target="3opzVPZRNWy8DkOBu5dA-43">
          <mxGeometry relative="1" as="geometry" />
        </mxCell>
        <mxCell id="3opzVPZRNWy8DkOBu5dA-40" value="Bedank de klant&amp;nbsp;" style="rounded=0;whiteSpace=wrap;html=1;" vertex="1" parent="1">
          <mxGeometry x="220" y="760" width="120" height="60" as="geometry" />
        </mxCell>
        <mxCell id="3opzVPZRNWy8DkOBu5dA-43" value="STOP" style="rounded=1;whiteSpace=wrap;html=1;" vertex="1" parent="1">
          <mxGeometry x="220" y="850" width="120" height="60" as="geometry" />
        </mxCell>
        <mxCell id="3opzVPZRNWy8DkOBu5dA-47" style="edgeStyle=orthogonalEdgeStyle;rounded=0;orthogonalLoop=1;jettySize=auto;html=1;entryX=0.5;entryY=0;entryDx=0;entryDy=0;" edge="1" parent="1" source="3opzVPZRNWy8DkOBu5dA-45" target="3opzVPZRNWy8DkOBu5dA-39">
          <mxGeometry relative="1" as="geometry">
            <Array as="points">
              <mxPoint x="70" y="640" />
              <mxPoint x="280" y="640" />
            </Array>
          </mxGeometry>
        </mxCell>
        <mxCell id="3opzVPZRNWy8DkOBu5dA-45" value="Bied excuses aan" style="rounded=0;whiteSpace=wrap;html=1;" vertex="1" parent="1">
          <mxGeometry x="10" y="660" width="120" height="60" as="geometry" />
        </mxCell>
      </root>
    </mxGraphModel>
  </diagram>
</mxfile>
